<?xml version="1.0" encoding="UTF-8"?>
<svg width="462px" height="455px" viewBox="0 0 462 455" version="1.1" xmlns="http://www.w3.org/2000/svg" xmlns:xlink="http://www.w3.org/1999/xlink">
    <!-- Generator: Sketch 53.2 (72643) - https://sketchapp.com -->
    <title>Society</title>
    <desc>Created with Sketch.</desc>
    <g id="Home-Page" stroke="none" stroke-width="1" fill="none" fill-rule="evenodd">
        <g id="UI--Desktop" transform="translate(-488.000000, -144.000000)">
            <g id="Society" transform="translate(489.000000, 144.000000)">
                <g id="Web" transform="translate(245.500000, 137.000000) scale(-1, 1) translate(-245.500000, -137.000000) translate(112.000000, 0.000000)">
                    <rect id="Container" fill="#C5CFD6" x="0" y="1" width="267" height="273" rx="8"></rect>
                    <rect id="Background" fill="#FFFFFF" x="198" y="35" width="57" height="64" rx="8"></rect>
                    <g id="Profile-Info" transform="translate(207.000000, 47.000000)">
                        <ellipse id="Avatar" fill="#B4D0D6" cx="19.8" cy="12.6153846" rx="12.8" ry="12.6153846"></ellipse>
                        <rect id="Name" fill="#DDE3E9" x="0" y="28" width="40" height="4.73076923" rx="2.36538462"></rect>
                        <rect id="Name" fill="#DDE3E9" x="6" y="36" width="27.2" height="4.73076923" rx="2.36538462"></rect>
                    </g>
                    <path d="M8,0 L259,0 C263.418278,-8.11624501e-16 267,3.581722 267,8 L267,22 L0,22 L0,8 C-5.41083001e-16,3.581722 3.581722,8.11624501e-16 8,0 Z" id="Header" fill="#AFB9C5"></path>
                    <g id="Buttons" transform="translate(223.000000, 7.000000)" fill="#F2F2F2">
                        <circle id="buttons" cx="4" cy="4" r="4"></circle>
                        <circle id="buttons" cx="16" cy="4" r="4"></circle>
                        <circle id="buttons" cx="28" cy="4" r="4"></circle>
                    </g>
                    <g id="Components" transform="translate(198.000000, 105.000000)">
                        <rect id="Background" fill="#FFFFFF" x="0" y="0" width="57" height="153" rx="8"></rect>
                        <g id="Rows" transform="translate(18.000000, 18.000000)">
                            <rect id="Data" fill="#DDE3E9" x="0" y="0" width="21" height="19.9431818" rx="4"></rect>
                            <rect id="Data" fill="#AFB9C5" x="0" y="26.0795455" width="21" height="19.1761364" rx="4"></rect>
                            <rect id="Data" fill="#DDE3E9" x="0" y="51.3920455" width="21" height="19.1761364" rx="4"></rect>
                            <rect id="Data" fill="#DDE3E9" x="0" y="102.017045" width="21" height="19.1761364" rx="4"></rect>
                            <rect id="Data" fill="#C5CFD6" x="0" y="76.7045455" width="21" height="19.1761364" rx="4"></rect>
                        </g>
                    </g>
                    <g id="Rows" transform="translate(16.000000, 44.000000)">
                        <g id="Row">
                            <rect id="Container" fill="#FFFFFF" x="0" y="0" width="171" height="35.5100618" rx="4"></rect>
                            <g id="Text-Stuff" transform="translate(9.000000, 10.715764)" fill="#DDE3E9">
                                <rect id="Label" x="0" y="0" width="113" height="5.35788217" rx="2.67894108"></rect>
                                <rect id="Label" x="0" y="8.92980361" width="75.8493151" height="5.35788217" rx="2.67894108"></rect>
                            </g>
                            <g id="Check" transform="translate(145.725191, 10.859607)">
                                <circle id="Background" fill="#DDE3E9" cx="7" cy="7" r="7"></circle>
                                <circle id="Indicator" fill="#F2F2F2" cx="7" cy="7" r="3"></circle>
                            </g>
                        </g>
                        <g id="Row" transform="translate(0.000000, 42.000000)">
                            <rect id="Container" fill="#FFFFFF" x="0" y="0" width="171" height="29.4295769" rx="4"></rect>
                            <g id="Text-Stuff" transform="translate(9.000000, 8.891804)" fill="#DDE3E9">
                                <rect id="Label" x="0" y="0" width="113" height="4.44590222" rx="2.22295111"></rect>
                                <rect id="Label" x="0" y="7.40983704" width="75.8493151" height="4.44590222" rx="2.22295111"></rect>
                            </g>
                            <g id="Check" transform="translate(145.725191, 7.819674)">
                                <circle id="Background" fill="#DDE3E9" cx="7" cy="7" r="7"></circle>
                                <circle id="Indicator" fill="#F2F2F2" cx="7" cy="7" r="3"></circle>
                            </g>
                        </g>
                        <g id="Row" transform="translate(0.000000, 77.000000)">
                            <rect id="Container" fill="#FFFFFF" x="0" y="0" width="171" height="29.4295769" rx="4"></rect>
                            <g id="Text-Stuff" transform="translate(9.000000, 8.891804)" fill="#DDE3E9">
                                <rect id="Label" x="0" y="0" width="113" height="4.44590222" rx="2.22295111"></rect>
                                <rect id="Label" x="0" y="7.40983704" width="75.8493151" height="4.44590222" rx="2.22295111"></rect>
                            </g>
                            <g id="Check" transform="translate(145.725191, 7.819674)">
                                <circle id="Background" fill="#DDE3E9" cx="7" cy="7" r="7"></circle>
                                <circle id="Indicator" fill="#AFB9C5" cx="7" cy="7" r="3"></circle>
                            </g>
                        </g>
                        <g id="Row" transform="translate(0.000000, 185.000000)">
                            <rect id="Container" fill="#FFFFFF" x="0" y="0" width="171" height="29.4295769" rx="4"></rect>
                            <g id="Text-Stuff" transform="translate(9.000000, 8.891804)" fill="#DDE3E9">
                                <rect id="Label" x="0" y="0" width="113" height="4.44590222" rx="2.22295111"></rect>
                                <rect id="Label" x="0" y="7.40983704" width="75.8493151" height="4.44590222" rx="2.22295111"></rect>
                            </g>
                            <g id="Check" transform="translate(145.725191, 7.819674)">
                                <circle id="Background" fill="#DDE3E9" cx="7" cy="7" r="7"></circle>
                                <circle id="Indicator" fill="#F2F2F2" cx="7" cy="7" r="3"></circle>
                            </g>
                        </g>
                        <g id="Row" transform="translate(0.000000, 149.000000)">
                            <rect id="Container" fill="#FFFFFF" x="0" y="0" width="171" height="29.4295769" rx="4"></rect>
                            <g id="Text-Stuff" transform="translate(9.000000, 8.891804)" fill="#DDE3E9">
                                <rect id="Label" x="0" y="0" width="113" height="4.44590222" rx="2.22295111"></rect>
                                <rect id="Label" x="0" y="7.40983704" width="75.8493151" height="4.44590222" rx="2.22295111"></rect>
                            </g>
                            <g id="Check" transform="translate(145.725191, 7.819674)">
                                <circle id="Background" fill="#DDE3E9" cx="7" cy="7" r="7"></circle>
                                <circle id="Indicator" fill="#F2F2F2" cx="7" cy="7" r="3"></circle>
                            </g>
                        </g>
                        <g id="Row" transform="translate(0.000000, 113.000000)">
                            <rect id="Container" fill="#FFFFFF" x="0" y="0" width="171" height="29.4295769" rx="4"></rect>
                            <g id="Text-Stuff" transform="translate(9.000000, 8.891804)" fill="#DDE3E9">
                                <rect id="Label" x="0" y="0" width="113" height="4.44590222" rx="2.22295111"></rect>
                                <rect id="Label" x="0" y="7.40983704" width="75.8493151" height="4.44590222" rx="2.22295111"></rect>
                            </g>
                            <g id="Check" transform="translate(145.725191, 7.819674)">
                                <circle id="Background" fill="#DDE3E9" cx="7" cy="7" r="7"></circle>
                                <circle id="Indicator" fill="#F2F2F2" cx="7" cy="7" r="3"></circle>
                            </g>
                        </g>
                    </g>
                </g>
                <g id="Web" transform="translate(330.500000, 187.500000) scale(-1, 1) translate(-330.500000, -187.500000) translate(200.000000, 54.000000)">
                    <rect id="Container" fill="#C5CFD6" x="0" y="0" width="261" height="267" rx="8"></rect>
                    <rect id="Background" fill="#FFFFFF" x="194" y="33" width="55" height="63" rx="8"></rect>
                    <g id="Profile-Info" transform="translate(202.000000, 45.000000)">
                        <ellipse id="Avatar" fill="#B4D0D6" cx="19.5" cy="12.3076923" rx="12.48" ry="12.3076923"></ellipse>
                        <rect id="Name" fill="#DDE3E9" x="0" y="27.6923077" width="39" height="4.61538462" rx="2.30769231"></rect>
                        <rect id="Name" fill="#DDE3E9" x="6.24" y="35.3846154" width="26.52" height="4.61538462" rx="2.30769231"></rect>
                    </g>
                    <path d="M8,0 L253,0 C257.418278,-8.11624501e-16 261,3.581722 261,8 L261,21 L0,21 L0,8 C-5.41083001e-16,3.581722 3.581722,8.11624501e-16 8,0 Z" id="Header" fill="#AFB9C5"></path>
                    <g id="Buttons" transform="translate(217.000000, 7.000000)" fill="#F2F2F2">
                        <circle id="buttons" cx="4" cy="4" r="4"></circle>
                        <circle id="buttons" cx="16" cy="4" r="4"></circle>
                        <circle id="buttons" cx="28" cy="4" r="4"></circle>
                    </g>
                    <g id="Components" transform="translate(194.000000, 102.000000)">
                        <rect id="Background" fill="#FFFFFF" x="0" y="0" width="55" height="150" rx="8"></rect>
                        <g id="Rows" transform="translate(18.000000, 18.000000)">
                            <rect id="Data" fill="#DDE3E9" x="0" y="0" width="19" height="19.5" rx="4"></rect>
                            <rect id="Data" fill="#AFB9C5" x="0" y="25.5" width="19" height="18.75" rx="4"></rect>
                            <rect id="Data" fill="#DDE3E9" x="0" y="50.25" width="19" height="18.75" rx="4"></rect>
                            <rect id="Data" fill="#DDE3E9" x="0" y="99.75" width="19" height="18.75" rx="4"></rect>
                            <rect id="Data" fill="#C5CFD6" x="0" y="75" width="19" height="18.75" rx="4"></rect>
                        </g>
                    </g>
                    <g id="Rows" transform="translate(16.000000, 44.000000)">
                        <g id="Row">
                            <rect id="Container" fill="#FFFFFF" x="0" y="0" width="162" height="34.5187575" rx="4"></rect>
                            <g id="Text-Stuff" transform="translate(9.000000, 10.416720)" fill="#DDE3E9">
                                <rect id="Label" x="0" y="0" width="104" height="5.20835987" rx="2.60417994"></rect>
                                <rect id="Label" x="0" y="8.68059979" width="69.8082192" height="5.20835987" rx="2.60417994"></rect>
                            </g>
                            <g id="Check" transform="translate(137.687023, 10.361200)">
                                <circle id="Background" fill="#DDE3E9" cx="7" cy="7" r="7"></circle>
                                <circle id="Indicator" fill="#F2F2F2" cx="7" cy="7" r="3"></circle>
                            </g>
                        </g>
                        <g id="Row" transform="translate(0.000000, 41.000000)">
                            <rect id="Container" fill="#FFFFFF" x="0" y="0" width="162" height="28.5947943" rx="4"></rect>
                            <g id="Text-Stuff" transform="translate(9.000000, 8.643661)" fill="#DDE3E9">
                                <rect id="Label" x="0" y="0" width="104" height="4.32183053" rx="2.16091527"></rect>
                                <rect id="Label" x="0" y="7.20305089" width="69.8082192" height="4.32183053" rx="2.16091527"></rect>
                            </g>
                            <g id="Check" transform="translate(137.687023, 7.406102)">
                                <circle id="Background" fill="#DDE3E9" cx="7" cy="7" r="7"></circle>
                                <circle id="Indicator" fill="#F2F2F2" cx="7" cy="7" r="3"></circle>
                            </g>
                        </g>
                        <g id="Row" transform="translate(0.000000, 75.000000)">
                            <rect id="Container" fill="#FFFFFF" x="0" y="0" width="162" height="28.5947943" rx="4"></rect>
                            <g id="Text-Stuff" transform="translate(9.000000, 8.643661)" fill="#DDE3E9">
                                <rect id="Label" x="0" y="0" width="104" height="4.32183053" rx="2.16091527"></rect>
                                <rect id="Label" x="0" y="7.20305089" width="69.8082192" height="4.32183053" rx="2.16091527"></rect>
                            </g>
                            <g id="Check" transform="translate(137.687023, 7.406102)">
                                <circle id="Background" fill="#DDE3E9" cx="7" cy="7" r="7"></circle>
                                <circle id="Indicator" fill="#AFB9C5" cx="7" cy="7" r="3"></circle>
                            </g>
                        </g>
                        <g id="Row" transform="translate(0.000000, 180.000000)">
                            <rect id="Container" fill="#FFFFFF" x="0" y="0" width="162" height="28.5947943" rx="4"></rect>
                            <g id="Text-Stuff" transform="translate(9.000000, 8.643661)" fill="#DDE3E9">
                                <rect id="Label" x="0" y="0" width="104" height="4.32183053" rx="2.16091527"></rect>
                                <rect id="Label" x="0" y="7.20305089" width="69.8082192" height="4.32183053" rx="2.16091527"></rect>
                            </g>
                            <g id="Check" transform="translate(137.687023, 7.406102)">
                                <circle id="Background" fill="#DDE3E9" cx="7" cy="7" r="7"></circle>
                                <circle id="Indicator" fill="#F2F2F2" cx="7" cy="7" r="3"></circle>
                            </g>
                        </g>
                        <g id="Row" transform="translate(0.000000, 145.000000)">
                            <rect id="Container" fill="#FFFFFF" x="0" y="0" width="162" height="28.5947943" rx="4"></rect>
                            <g id="Text-Stuff" transform="translate(9.000000, 8.643661)" fill="#DDE3E9">
                                <rect id="Label" x="0" y="0" width="104" height="4.32183053" rx="2.16091527"></rect>
                                <rect id="Label" x="0" y="7.20305089" width="69.8082192" height="4.32183053" rx="2.16091527"></rect>
                            </g>
                            <g id="Check" transform="translate(137.687023, 7.406102)">
                                <circle id="Background" fill="#DDE3E9" cx="7" cy="7" r="7"></circle>
                                <circle id="Indicator" fill="#F2F2F2" cx="7" cy="7" r="3"></circle>
                            </g>
                        </g>
                        <g id="Row" transform="translate(0.000000, 110.000000)">
                            <rect id="Container" fill="#FFFFFF" x="0" y="0" width="162" height="28.5947943" rx="4"></rect>
                            <g id="Text-Stuff" transform="translate(9.000000, 8.643661)" fill="#DDE3E9">
                                <rect id="Label" x="0" y="0" width="104" height="4.32183053" rx="2.16091527"></rect>
                                <rect id="Label" x="0" y="7.20305089" width="69.8082192" height="4.32183053" rx="2.16091527"></rect>
                            </g>
                            <g id="Check" transform="translate(137.687023, 7.406102)">
                                <circle id="Background" fill="#DDE3E9" cx="7" cy="7" r="7"></circle>
                                <circle id="Indicator" fill="#F2F2F2" cx="7" cy="7" r="3"></circle>
                            </g>
                        </g>
                    </g>
                </g>
                <g id="Group" transform="translate(348.500000, 341.000000) scale(-1, 1) translate(-348.500000, -341.000000) translate(236.000000, 180.000000)">
                    <g id="Head/Front/Chongo" transform="translate(55.500000, 0.000000)">
                        <g id="Head" stroke-width="1" transform="translate(40.500000, 23.250000)" fill="#B28B67">
                            <path d="M6.19670541,25.8675951 C2.74077326,21.8110319 0.401726096,16.8396578 0.792582251,11.2690904 C1.91874767,-4.78126543 24.261398,-1.25039164 28.607506,6.85044969 C32.9536141,14.951291 32.4371835,35.4997469 26.820226,36.9475932 C24.5801912,37.5249923 19.8082509,36.1105957 14.951529,33.1832295 L18,54.75 L0,54.75 L6.19670541,25.8675951 Z"></path>
                        </g>
                        <path d="M61.9976213,21.2774822 C59.5380401,20.5274822 55.9675924,20.2731332 54.4656111,20.4451982 C55.3200065,18.398133 55.6590432,16.117456 55.3826465,13.8968143 C55.1140008,11.7390496 54.1498276,9.90177542 53.2581124,7.97653412 C52.8470771,7.08912388 52.3812677,6.20655032 51.6867737,5.52778245 C50.9793038,4.83625784 50.0837417,4.37979597 49.144659,4.16202436 C48.1836436,3.93911377 47.1787631,3.95767454 46.2162549,4.15996877 C45.7904639,4.24944739 45.4084233,4.44412384 44.9908426,4.5523446 C44.5632143,4.66322554 44.3557733,4.39557564 44.0453868,4.12659566 C43.2973818,3.47848027 42.2008092,3.15853375 41.2544921,3.0440253 C40.1927705,2.91561139 39.091088,3.07576603 38.0785138,3.4247931 C37.0929247,3.76457001 36.1460909,4.31631452 35.4335111,5.12011062 C35.1162348,5.47790417 34.8282402,5.8851528 34.6410667,6.33478286 C34.5643026,6.51930228 34.5516139,6.62861129 34.3674834,6.69620392 C34.1971899,6.7587785 33.9980167,6.76059225 33.8222688,6.8201439 C32.1228942,7.39570907 30.6699455,8.70874733 29.8788217,10.3946333 C29.417261,11.3781726 29.198624,13.1098377 29.258508,15.0507497 C29.3183921,16.9916618 31.0709332,22.0560551 32.7100793,23.9033049 C34.1731904,25.5521298 36.3237909,26.6402019 38.3992924,27.1164942 C37.0216725,28.6911365 36.1046372,30.6588197 35.4265064,32.6599969 C34.689927,34.8337832 34.2340505,37.0924532 34.0657092,39.393807 C33.9058079,41.5803501 33.8909948,43.8926468 34.4035975,46.0325159 C34.8831291,48.0336326 35.9086217,49.675263 37.6205703,50.7167216 C38.4047469,51.1937998 39.248463,51.5521979 40.0970594,51.8797622 C40.933369,52.2025503 41.7722048,52.5163905 42.6482457,52.6975242 C44.306224,53.0402032 46.2165994,52.981377 47.4937428,51.6616883 C47.9540403,51.1859402 48.46027,50.5881263 48.7960914,50.0069385 C48.9168355,49.7979333 48.989638,49.6612366 48.8429422,49.4569473 C48.6671943,49.2122716 48.3829317,49.0247897 48.1571752,48.833378 C46.8697545,47.7420412 46.0728318,46.2851116 45.8719361,44.5537004 C45.6681121,42.796957 46.1400075,40.52946 47.8479944,39.7627854 C49.9563374,38.8163676 52.2782075,39.9026864 54.1521242,40.9153063 C54.9485303,38.1044685 56.5837721,35.5736142 59.1475323,34.2842756 C61.9838998,32.8578776 65.2385944,32.6909517 68.153391,31.4670897 C68.9129365,31.148171 69.6865487,30.7861453 70.2457726,30.1363371 C70.4794524,29.8647574 70.7536099,29.5124656 70.8469096,29.1532815 C70.969491,28.6814631 70.6651905,28.285883 70.4301327,27.9180533 C69.1837639,25.9677218 64.4572025,22.0274822 61.9976213,21.2774822 Z" id="hair" fill="#191847"></path>
                    </g>
                    <g id="Bottom/Sitting/Sweat-Pants" transform="translate(0.000000, 141.770492)">
                        <g id="Objects/Seat/Ball" transform="translate(7.500000, 31.631799)" fill="#C5CFD6">
                            <ellipse id="Ballsy-Ball" cx="87" cy="43.875" rx="57.75" ry="55.125"></ellipse>
                        </g>
                        <path d="M203.63194,122.505326 C194.022351,101.147607 187.072794,82.5501699 184.283267,72.7381178 C179.50692,55.9375025 175.873363,41.1539421 174.954995,35.6330535 C172.765031,22.4677865 191.801456,21.7011468 194.317672,28.2440551 C198.126064,38.1470066 204.774655,70.6839729 212.763444,119.829849 L203.63194,122.505326 Z M92.1662598,55.4788178 C100.983047,51.9792001 131.858967,41.0271064 146.750423,37.9289595 C151.02963,37.0386763 155.177163,36.2115029 159.076571,35.463968 C170.666994,33.2420299 176.67192,54.2390673 165.50893,55.852385 C137.708672,59.8701837 98.2971123,64.0192138 94.924344,64.4848299 C90.1972653,65.1374107 86.6251839,57.6782184 92.1662598,55.4788178 Z" id="Skin" fill="#B28B67"></path>
                        <path d="M166.190341,29.6858843 L118.5,5.30715119 L118.5,0 L124.171639,0 C170.309907,11.8059832 193.886524,19.3719687 194.901491,22.6979565 C194.912411,22.7337402 194.922423,22.7695708 194.931527,22.8054483 C194.954747,22.8360519 194.977572,22.8668404 195,22.8978138 C204.14363,35.5255424 209.619713,97.1751206 211.417062,101.791232 L193.895798,104.4161 C187.193449,79.4585488 165.75,62.0722098 166.319616,32.1808448 C166.165807,31.3040151 166.126943,30.4724913 166.190341,29.6858843 Z" id="Leg-Back" fill="#1F28CF"></path>
                        <path d="M122.462381,44.1643754 C118.098825,43.2872319 114.080459,42.5043948 110.642029,41.8987726 C88.4319673,37.9868409 81.9553244,26.0482221 85.7846615,2.36801799e-14 L126.706322,-4.97379915e-14 C133.390945,1.92827303 168.130527,16.5576183 186.154967,24.3386639 C198.084464,29.4885585 194.323898,48.0535835 187.568218,52.8849655 C187.531533,53.1813614 187.409953,53.3826946 187.193449,53.4728033 C150.85265,68.5978137 122.103743,60.6617594 112.5,63.1974482 L108.05784,49.126004 L122.462381,44.1643754 Z" id="Leg-Front" fill="#2B44FF"></path>
                        <g id="Accessories/Shoe/Flat-Sneaker" transform="translate(107.969471, 70.291748) rotate(64.000000) translate(-107.969471, -70.291748) translate(85.094471, 55.228986)" fill="#E4E4E4">
                            <path d="M1.82897503,19.5677263 C1.11239058,21.5505608 0.754098361,23.0544031 0.754098361,24.0792531 C0.754098361,25.4317178 0.98064022,27.4053001 1.43372394,30 C3.01125137,30 17.1887561,30 43.9662381,30 C45.0715073,26.3658804 44.4334818,24.4039362 42.0521615,24.1141674 C39.6708412,23.8243985 37.692638,23.5627604 36.1175518,23.3292531 L16.5770385,14.6653387 C16.0721555,14.4414825 15.4813956,14.6692999 15.2575395,15.1741829 C15.2542433,15.1816173 15.2510378,15.1890916 15.2479239,15.1966042 L14.0738984,18.0290213 C11.8694186,19.0519891 10.0780499,19.563473 8.69979233,19.563473 C7.66613186,19.563473 6.26893375,19.1802185 4.50819802,18.4137095 L4.50819034,18.4137271 C3.49543696,17.9728406 2.31702901,18.4364303 1.87614251,19.4491837 C1.85916336,19.4881862 1.84343286,19.5277205 1.82897503,19.5677263 Z" id="shoe"></path>
                        </g>
                        <g id="Accessories/Shoe/Flat-Sneaker" transform="translate(197.250000, 99.414226)" fill="#E4E4E4">
                            <path d="M1.82897503,19.5677263 C1.11239058,21.5505608 0.754098361,23.0544031 0.754098361,24.0792531 C0.754098361,25.4317178 0.98064022,27.4053001 1.43372394,30 C3.01125137,30 17.1887561,30 43.9662381,30 C45.0715073,26.3658804 44.4334818,24.4039362 42.0521615,24.1141674 C39.6708412,23.8243985 37.692638,23.5627604 36.1175518,23.3292531 L16.5770385,14.6653387 C16.0721555,14.4414825 15.4813956,14.6692999 15.2575395,15.1741829 C15.2542433,15.1816173 15.2510378,15.1890916 15.2479239,15.1966042 L14.0738984,18.0290213 C11.8694186,19.0519891 10.0780499,19.563473 8.69979233,19.563473 C7.66613186,19.563473 6.26893375,19.1802185 4.50819802,18.4137095 L4.50819034,18.4137271 C3.49543696,17.9728406 2.31702901,18.4364303 1.87614251,19.4491837 C1.85916336,19.4881862 1.84343286,19.5277205 1.82897503,19.5677263 Z" id="shoe"></path>
                        </g>
                    </g>
                    <g id="Body/Hoodie" transform="translate(15.000000, 61.836066)">
                        <path d="M143.085904,69.5284462 L167.009607,87.1900901 C173.498208,88.9503117 178.919224,91.1403246 183.272656,93.7601288 C184.301012,94.7021936 185.543877,96.6100312 181.279035,96.2803091 C177.014193,95.950587 172.51347,95.7966003 171.925005,97.2590508 C171.336539,98.7215013 173.91739,100.470432 172.727846,102.443661 C171.934816,103.759146 168.188225,100.460615 161.488072,92.5480648 L137.79733,82.6715778 L143.085904,69.5284462 Z M51.230946,70.137993 L66.9039899,70.1999574 C57.2266085,101.607268 52.0022605,118.271791 51.230946,120.193525 C49.4954884,124.517426 53.1679501,131.102653 54.7384405,134.641505 C49.6234056,136.942571 50.1684181,128.420786 43.7159392,131.438762 C37.8264157,134.19343 33.3462698,139.184704 26.5417764,134.96367 C25.7052039,134.444719 24.7884568,132.490774 27.0034338,130.963869 C32.5217493,127.159792 40.4739762,120.501972 41.5484472,118.310499 C43.0136805,115.322034 46.2411801,99.2645323 51.230946,70.137993 Z" id="Skin" fill="#B28B67"></path>
                        <path d="M92.0281953,7.20736203 L98.3913905,5.52805812 C124.183689,24.2490653 137.528458,63.3819291 168.764503,81.9978881 L162.463435,91.4296505 C110.935113,89.5442269 94.032968,41.8661863 92.0281953,7.20736203 Z" id="Coat-Back" fill="#E87613" transform="translate(130.396349, 48.478854) rotate(5.000000) translate(-130.396349, -48.478854) "></path>
                        <path d="M67.5,85.9572193 C93.5038169,85.9572193 112.63168,85.9572193 124.883588,85.9572193 C127.505725,85.9572193 127.011634,82.1506996 126.632588,80.229909 C122.257941,58.0616633 105.180978,34.1653673 105.180978,2.60942766 L88.6288501,0 C74.9381137,22.1365527 70.2036197,49.3911312 67.5,85.9572193 Z" id="Shirt" fill="#DDE3E9"></path>
                        <path d="M67.961131,21.7592093 C65.5571421,21.0644864 63.6534318,19.4441757 62.25,16.8982771 C56.2001678,5.92356516 58.3850453,-0.118826646 64.8503973,-2.10499495 C71.3157493,-4.09116326 77.0814894,-1.55431223e-14 87.3825235,-5.32907052e-15 C87.9428139,-4.88498131e-15 88.4559769,0.0353122317 88.9220123,0.105936695 L94.1036904,0.403199637 C108.970489,51.0579808 113.070664,84.8540622 106.404214,101.791444 L61.2388605,101.791444 C58.5628614,108.064716 56.002156,113.34279 53.5567444,117.625668 L41.25,117.625668 C40.0917624,79.9757209 48.9954727,48.0202345 67.961131,21.7592093 Z" id="Coat-Front" fill="#FF9B21"></path>
                        <path d="M71.0739214,75.7762899 C72.494363,87.7246377 74.8030558,96.3963556 78,101.791444 L61.2388605,101.791444 C64.3603388,94.4738476 67.6386924,85.8021296 71.0739214,75.7762899 Z" id="Shade" fill-opacity="0.1" fill="#000000"></path>
                    </g>
                </g>
                <g id="Group-2" transform="translate(0.000000, 148.000000)">
                    <g id="Head/Front/Afro" transform="translate(51.505017, 0.000000)">
                        <path d="M45.75,58.2801441 C54.3217034,58.2801441 57.439123,48.0180629 62.308964,42.3865112 C65.7932354,38.3572515 71.7398096,39.5587081 73.5,33.9178322 C77.9261569,19.7333428 66.0795815,9.75 50.625,9.75 C35.1704185,9.75 24.75,18.5056893 22.5,31.6678322 C20.25,44.829975 30.2954185,58.2801441 45.75,58.2801441 Z" id="Hair-Back" fill="#191847"></path>
                        <g id="Head" stroke-width="1" transform="translate(40.500000, 23.250000)" fill="#B28B67">
                            <path d="M6.19670541,25.8675951 C2.74077326,21.8110319 0.401726096,16.8396578 0.792582251,11.2690904 C1.91874767,-4.78126543 24.261398,-1.25039164 28.607506,6.85044969 C32.9536141,14.951291 32.4371835,35.4997469 26.820226,36.9475932 C24.5801912,37.5249923 19.8082509,36.1105957 14.951529,33.1832295 L18,54.75 L0,54.75 L6.19670541,25.8675951 Z"></path>
                        </g>
                        <path d="M54.2848268,38.7925256 C53.6308303,38.4465226 52.881465,38.25 52.0850013,38.25 C49.5348442,38.25 47.4675334,40.2647186 47.4675334,42.75 C47.4675334,43.7643668 47.8119188,44.7003444 48.3929585,45.4529423 C47.2988926,47.2562875 46.5521874,49.1510111 46.3074291,51.0988294 C42.5152763,51.0988294 28.6751852,36.75 42.4625926,23.25 C56.25,9.75 76.1745105,29.0219698 70.1873704,30.1458951 C66.7450715,30.7920945 59.8123859,34.0784312 54.2848287,38.7925242 Z" id="Hair" fill="#191847"></path>
                    </g>
                    <path d="M150.963699,110.951756 L180.38986,106.865657 C186.276286,103.532562 191.691512,101.276115 196.635539,100.096316 C198.026839,100.054963 200.240131,100.56984 196.94294,103.368052 C193.645749,106.166264 190.300283,109.26167 190.887743,110.755027 C191.475203,112.248384 194.541549,111.692755 195.049521,113.989665 C195.388169,115.520938 190.411676,115.769754 180.120042,114.736114 L156.243234,124.372643 L150.963699,110.951756 Z M58.525326,117.885478 L74.8452154,117.947828 C56.9500138,158.943532 47.619178,180.408233 46.8527082,182.341931 C45.1281511,186.69275 48.7775458,193.318973 50.3381719,196.879856 C45.2552649,199.195246 45.7968541,190.62041 39.3849037,193.657174 C33.5323728,196.428991 29.0803671,201.451338 22.3186133,197.204027 C21.4872954,196.681845 20.5763064,194.715735 22.7773709,193.179325 C28.2610254,189.351566 36.1633037,182.652298 37.231026,180.447183 C38.687056,177.440113 45.785156,156.586212 58.525326,117.885478 Z" id="Skin" fill="#997659"></path>
                    <path d="M99.0939235,69.7063488 L111.962602,69.4430893 C117.618417,97.799312 136.363256,114.382825 174.253579,104.898473 L182.584501,141.323324 C147.07747,149.127511 114.316444,137.441006 104.440214,98.9032238 C101.88357,88.9270095 99.642472,78.5081105 99.0939235,69.7063488 Z" id="Clothes-Back" fill="#AFB9C5" transform="translate(140.839212, 106.527049) rotate(5.000000) translate(-140.839212, -106.527049) "></path>
                    <g id="Bottom/Standing/Jogging" transform="translate(0.000000, 147.789934)">
                        <polygon id="Leg" fill="#997659" points="86.6666667 0 136.204275 82.6446802 173.34323 152.513791 181.342631 152.513791 119.115792 3.38648645e-13"></polygon>
                        <g id="Accessories/Shoe/Flat-Sneaker" transform="translate(166.666667, 132.389121)" fill="#E4E4E4">
                            <path d="M1.54911379,17.8400258 C0.964458695,19.5117448 0.672131148,20.7888455 0.672131148,21.6713278 C0.672131148,22.888546 0.874048892,24.6647701 1.27788438,27 C2.68394144,27 15.320413,27 39.1872991,27 C40.1724304,23.7292924 39.6037555,21.9635426 37.4812744,21.7027506 C35.3587932,21.4419587 33.5956121,21.2064844 32.191731,20.9963278 L14.8821042,13.2466727 C14.3780324,13.0209958 13.7864542,13.2466795 13.5607773,13.7507513 C13.5564964,13.7603131 13.552366,13.7699416 13.5483877,13.7796332 L12.5441268,16.2261192 C10.5792644,17.1467902 8.98260972,17.6071257 7.75416273,17.6071257 C6.87349081,17.6071257 5.69674792,17.2919518 4.22393406,16.6616041 L4.22393946,16.6615915 C3.20845881,16.2269772 2.03292459,16.6978624 1.5983103,17.713343 C1.58048111,17.7550011 1.5640728,17.7972531 1.54911379,17.8400258 Z" id="shoe"></path>
                        </g>
                        <path d="M163.028704,141.325646 L178.455409,136.668742 C171.696549,116.50567 163.412607,94.3169478 153.603583,70.1025764 C143.794558,45.888205 133.260031,22.5206795 122,2.84217094e-14 L78.4293821,2.84217094e-14 C90.9481147,28.4876255 104.21965,54.3722901 118.243988,77.6539938 C132.268326,100.935697 147.196565,122.159581 163.028704,141.325646 Z" id="Pant" fill="#DB2721"></path>
                        <path d="M83.4110853,2.84217094e-14 C78.7356655,29.041908 69.7180607,66.1463075 68.867042,67.2913603 C68.2996961,68.0547288 47.8751009,74.8844755 7.59325623,87.7806004 L9.32122345,94.8198417 C57.3572287,87.9035665 82.6681069,82.5376358 85.2538579,78.7220493 C89.1324845,72.9986696 108.49899,27.7838443 116,2.84217094e-14 L83.4110853,2.84217094e-14 Z" id="Leg" fill="#B28B67"></path>
                        <path d="M21.7530052,81.6957149 L24.7966313,93.0329219 C60.7247644,96.1774505 82.7387252,93.905331 90.8385135,86.2165634 C98.9383018,78.5277958 108.16967,49.7889413 118.532617,-1.13686838e-13 L76.9854306,-1.13686838e-13 C70.4197112,40.7704435 66.7490468,62.0114143 65.9734372,63.7229124 C65.1978277,65.4344105 50.4576837,71.4253446 21.7530052,81.6957149 Z" id="Pant" fill="#FF4133"></path>
                        <g id="Accessories/Shoe/Flat-Sneaker" transform="translate(16.333333, 102.451883) rotate(80.000000) translate(-16.333333, -102.451883) translate(-4.000000, 89.146444)" fill="#E4E4E4">
                            <path d="M1.54911379,17.8400258 C0.964458695,19.5117448 0.672131148,20.7888455 0.672131148,21.6713278 C0.672131148,22.888546 0.874048892,24.6647701 1.27788438,27 C2.68394144,27 15.320413,27 39.1872991,27 C40.1724304,23.7292924 39.6037555,21.9635426 37.4812744,21.7027506 C35.3587932,21.4419587 33.5956121,21.2064844 32.191731,20.9963278 L14.8821042,13.2466727 C14.3780324,13.0209958 13.7864542,13.2466795 13.5607773,13.7507513 C13.5564964,13.7603131 13.552366,13.7699416 13.5483877,13.7796332 L12.5441268,16.2261192 C10.5792644,17.1467902 8.98260972,17.6071257 7.75416273,17.6071257 C6.87349081,17.6071257 5.69674792,17.2919518 4.22393406,16.6616041 L4.22393946,16.6615915 C3.20845881,16.2269772 2.03292459,16.6978624 1.5983103,17.713343 C1.58048111,17.7550011 1.5640728,17.7972531 1.54911379,17.8400258 Z" id="shoe"></path>
                        </g>
                    </g>
                    <path d="M95.3967855,63.1586272 L114.920388,67.6446075 C114.920388,101.334038 125.617173,122.828451 131.103679,147.597999 L78.375659,147.597999 C77.6328928,156.156921 77.1767666,164.95394 76.9390811,173.989059 L37.458194,173.989059 C46.4047844,126.23177 65.28801,89.2842862 94.1078706,63.1466083 L95.3865171,63.1466083 L95.3967855,63.1586272 Z" id="Clothes" fill="#C5CFD6"></path>
                </g>
            </g>
        </g>
    </g>
</svg>